PathFileType	4	(X/Y/Z)	Patient5_TMGait_0pt45_1_left_02.trc.trc
DataRate	CameraRate	NumFrames	NumMarkers	Units	OrigDataRate	OrigDataStartFrame	OrigNumFrames
59.322033898305	59.322033898305	4	32	mm	59.322033898305	18	       141
Frame#	Time	R.ASIS			L.ASIS			Chest			R.Shoulder			Neck			L.Shoulder			L.Elbow			L.Wrist			R.Elbow			R.Wrist			L.Thigh.Superior			L.Thigh.Lateral			L.Thigh.Inferior			L.Patella			L.Shank.Superior			L.Shank.Lateral			L.Shank.Inferior			L.Heel			L.Midfoot.Lateral			L.Midfoot.Superior			L.Toe			R.Thigh.Superior			R.Thigh.Lateral			R.Thigh.Inferior			R.Patella			R.Shank.Superior			R.Shank.Lateral			R.Shank.Inferior			R.Heel			R.Midfoot.Lateral			R.Midfoot.Superior			R.Toe			
		X1	Y1	Z1	X2	Y2	Z2	X3	Y3	Z3	X4	Y4	Z4	X5	Y5	Z5	X6	Y6	Z6	X7	Y7	Z7	X8	Y8	Z8	X9	Y9	Z9	X10	Y10	Z10	X11	Y11	Z11	X12	Y12	Z12	X13	Y13	Z13	X14	Y14	Z14	X15	Y15	Z15	X16	Y16	Z16	X17	Y17	Z17	X18	Y18	Z18	X19	Y19	Z19	X20	Y20	Z20	X21	Y21	Z21	X22	Y22	Z22	X23	Y23	Z23	X24	Y24	Z24	X25	Y25	Z25	X26	Y26	Z26	X27	Y27	Z27	X28	Y28	Z28	X29	Y29	Z29	X30	Y30	Z30	X31	Y31	Z31	X32	Y32	Z32	

18	1.986571428571	933.814103214731	960.738318221112	631.727901917645	900.006890394900	956.134112541579	391.356229579805	1007.461060575792	1418.376990585448	525.630115808225	941.563352217153	1480.253450035364	708.027941685596	885.886775122442	1547.841554045428	532.758128753369	917.369604337187	1497.314060892207	343.304694567395	795.357767078442	1186.932334933778	226.186047113572	920.780904370397	928.611474168585	210.649029070381	899.225281423868	1160.677912273677	862.096537891464	1097.553072977582	968.472759167744	775.031710989532	966.188409593523	780.575309787696	349.494176515531	924.916712855069	695.967189681472	300.754824966013	1025.329238287363	668.910831960288	348.354825082336	1079.109936049401	548.451143693610	326.824178363794	1049.720280740144	438.450126227344	350.798978739072	972.278479608267	366.800537180649	286.865445496138	1033.045798572177	312.951132757812	359.604348023293	929.973099087441	67.245310261611	374.888752685258	1003.842202334537	54.387586016302	294.635772345253	1101.403543661635	126.139597662328	314.089158912512	1206.929667353603	98.488123085284	291.820285108210	920.641535607094	727.444243557981	630.845897608738	827.840196142900	656.132824614243	685.810298444770	892.027542922108	600.785631830212	600.938063926618	884.331688617158	504.332362782598	620.086346209422	834.155332648040	417.769359682079	579.872781926851	770.934619242048	344.853600821226	662.504363814615	816.679322804027	279.933150163397	569.385696142875	691.825190175015	53.608027035242	525.721075107202	772.930015887663	24.546068391117	596.184950648027	877.505708216920	87.782272629249	567.980080964468	981.812979121436	44.706738600468	564.219709054713	
19	2.003428571429	932.862362310729	960.200892517841	632.197592901212	901.518785670167	954.586821800305	391.601810604528	1008.841968740383	1417.398780364048	524.925417153852	942.055710133194	1479.905901068495	706.685023002958	887.558942057581	1547.256341321565	530.923687442376	920.262926769110	1495.983038783455	341.832852694801	798.928738923238	1185.236905688218	224.969546182775	924.317820543212	926.908714520632	210.200201699556	897.181800855740	1160.383001376295	860.348946426749	1094.672392714217	966.666734354032	774.599191472492	963.342960131126	775.297639647432	348.963601723865	919.748974584040	690.483868766874	302.628452704154	1020.586579160409	662.851489936627	349.235805139470	1073.519529010664	546.211396910671	329.964269247989	1050.806583268348	436.992270237670	354.458252961020	977.725918382219	360.594641699666	290.484692323818	1043.535659358593	310.580138140090	362.039616136666	957.974220253598	58.469234760352	375.988440918190	1033.094037236945	48.781522439068	296.362311200119	1126.244093172719	126.675540743766	315.102169992195	1233.533655052464	105.059457845191	293.965373169834	917.940697442560	726.769910380530	631.198292879803	824.242906496361	656.109557462621	685.544399913384	888.417117591245	600.154043270473	601.133615214859	879.866004165639	503.688322610621	620.200518540178	829.162238947047	417.598072106611	579.818962764466	764.780429170869	345.200411363882	662.171436471701	810.560980440237	279.753037658987	569.400782514818	684.209109445245	53.685223999614	525.667184965310	765.250390077137	24.640181410168	596.176432095095	869.853302073579	87.705715341528	567.948117169943	974.096749428665	44.665029065418	564.259980433271	
20	2.020285714286	932.219904435808	959.817749672007	632.358004296071	903.607094241015	953.047044115071	391.714433884193	1010.201973907876	1416.502667173427	524.163098029816	942.268473764966	1479.607940925675	705.158493925688	889.134026458323	1546.658873650589	528.854283095355	923.379169552094	1494.629027456225	340.167804179585	802.748586412985	1183.613266518477	223.334773992644	927.847348160770	925.135867064916	209.538810669564	894.770172766076	1160.046046568185	858.237313620233	1091.504721372391	964.700946551546	774.129923315265	961.278842878820	769.684530724542	348.890852726293	915.240714054407	684.807239043893	304.930397492676	1016.247123090678	656.362668670914	351.043815882342	1067.886986213919	543.393391298586	334.306645563173	1050.799244493322	435.057336520878	359.014168477177	981.527304698276	354.827887752878	295.048379725453	1051.697682796838	308.370785632332	365.412920413582	981.165318957037	52.046573693291	377.950428236333	1057.429413125946	44.643211354616	299.045598432309	1146.948300701174	127.053867747587	317.379364559440	1255.513876048708	110.038308641062	297.492822300846	915.754809177508	726.171053252670	631.441887597010	821.144135491956	656.129317050492	685.039488337851	885.401986987563	599.537760407625	601.152962044448	875.961623737552	503.065801483447	620.228797459405	824.659356903664	417.331700665827	579.616596140488	758.984378936705	345.607232565887	661.672207013226	804.761230714529	279.541804649612	569.320919444554	676.608499466069	53.773823223909	525.593968100983	757.592206571418	24.767286587065	596.142285497786	862.228259521689	87.651993380470	567.915490395565	966.410387986424	44.598861813092	564.261214387536	
21	2.037142857143	931.956759942276	959.574350732604	632.142413937626	906.314413488419	951.556930848066	391.682584118155	1011.501708627659	1415.739547510625	523.359017268658	942.095810403057	1479.373531564405	703.466715969703	890.560595916992	1546.053380646522	526.563707523662	926.625625981099	1493.295080608927	338.329721136619	806.820691778710	1182.071239192709	221.290567565295	931.389077479573	923.315744701336	208.673870840477	892.032848024737	1159.706934917588	855.857357367519	1088.108554560374	962.738014241746	773.548708468642	960.285117229230	764.016912017521	349.460747759124	911.857400764036	679.252796825439	307.614447141288	1012.657780612052	649.773883838827	353.906191557583	1062.664937338629	540.162831230560	339.789906581881	1049.946098832026	432.646729333616	364.378889788467	983.802987744035	349.530265080983	300.422870465245	1057.407030599777	306.113207192493	369.771462033444	998.605766856162	47.741942626325	380.819340734325	1075.956737759254	41.654766136916	302.774572540485	1162.967059779367	126.647708428362	321.326902283288	1272.364192427547	112.460111915606	302.825363684353	914.143073875861	725.619234314474	631.565406714103	818.602095309702	656.181886280402	684.315762191977	883.020434728612	598.922940139026	601.006633979293	872.640199908864	502.444325816678	620.171192395393	820.656519230653	416.947021778444	579.283353499744	753.579966560425	346.068454997771	661.031787343942	799.294387841168	279.307137767588	569.161949681435	669.020910299767	53.880579820103	525.510690649232	749.959761567427	24.916445212002	596.076192165620	854.629276206064	87.624945760809	567.891510462638	958.756915598284	44.517912940503	564.228255714105	
